<svg width="650" height="989" viewBox="0 0 650 989" fill="none" xmlns="http://www.w3.org/2000/svg">
<mask id="mask0_2255_6026" style="mask-type:alpha" maskUnits="userSpaceOnUse" x="0" y="0" width="650" height="989">
<rect y="0.412354" width="650" height="988.588" fill="#F0F0F0"/>
</mask>
<g mask="url(#mask0_2255_6026)">
<rect y="0.412354" width="650" height="988.588" fill="url(#paint0_linear_2255_6026)"/>
<g opacity="0.5">
<path d="M615.97 806.663C619.22 788.388 622.351 769.774 625.577 751.429C628.638 734.011 631.665 716.489 634.66 698.864C636.485 688.075 638.263 677.144 640.02 666.156C640.358 664.08 639.552 662.159 639.221 664.207C636.191 683.061 633.063 701.661 629.907 720.147C626.908 737.73 623.915 755.327 620.994 773.135C619.206 784.024 617.469 795.026 615.841 806.338C615.79 806.705 615.915 806.973 615.97 806.663Z" fill="white"/>
<path d="M596.751 757.473C598.826 746.486 600.813 735.216 602.773 723.89C606.874 700.239 610.921 676.437 614.913 652.485C617.08 639.483 619.216 626.391 621.322 613.21C621.66 611.148 620.855 609.214 620.523 611.275C616.626 635.51 612.638 659.49 608.647 683.442C605.248 703.835 601.879 724.313 598.541 744.876C597.891 748.915 597.269 753.011 596.639 757.092C596.591 757.389 596.703 757.756 596.754 757.473H596.751Z" fill="white"/>
<path d="M639.437 663.007C639.282 660.267 638.76 657.753 638.371 655.55C637.982 653.347 637.453 650.861 636.969 648.63C636.004 644.254 634.966 640.172 633.861 636.414C631.643 628.736 629.207 622.228 626.607 617.038C625.862 615.555 625.107 614.213 624.342 612.9C623.595 611.543 622.826 610.419 622.04 609.538C621.23 608.747 620.973 613.351 621.701 614.608C622.991 616.826 624.315 618.52 625.581 620.978C629.353 628.329 632.79 638.364 635.737 650.635C636.282 652.909 636.827 655.155 637.345 657.527C637.863 659.9 638.361 662.823 639.038 664.363C639.085 664.472 639.138 664.522 639.192 664.506C639.245 664.489 639.297 664.407 639.339 664.271C639.382 664.134 639.414 663.947 639.431 663.735C639.449 663.523 639.451 663.294 639.437 663.077V663.007Z" fill="white"/>
<path d="M639.59 665.422C640.07 666.269 640.548 664.673 640.842 663.162C641.296 660.804 641.716 658.304 642.142 655.847C643.029 650.734 643.879 645.509 644.749 640.312C645.057 638.476 644.333 636.725 644.028 638.56L641.641 652.881C641.248 655.225 640.879 657.64 640.5 659.942C640.216 661.736 639.874 663.289 639.566 664.984C639.562 665.015 639.559 665.048 639.558 665.083C639.557 665.118 639.557 665.154 639.559 665.188C639.562 665.222 639.565 665.254 639.571 665.282C639.576 665.31 639.582 665.334 639.59 665.351V665.422Z" fill="white"/>
<path d="M644.485 639.351C644.282 636.299 643.923 633.466 643.432 631.047C642.962 628.331 642.458 625.719 641.922 623.223C640.814 618.048 639.619 613.206 638.347 608.733C635.823 599.694 632.994 592.248 629.951 586.631C629.119 585.134 628.276 583.807 627.416 582.592C626.556 581.378 625.659 579.909 624.789 579.909C624.288 579.909 624.013 583.129 624.518 584.146C625.238 585.25 625.974 586.16 626.722 586.871C627.469 587.813 628.207 588.915 628.936 590.176C630.421 592.722 631.86 595.714 633.242 599.13C636.043 605.962 638.607 614.369 640.859 624.113C641.469 626.754 642.047 629.522 642.626 632.29C643.205 635.058 643.642 637.84 644.353 639.817C644.427 640.029 644.512 639.676 644.498 639.351H644.485Z" fill="white"/>
<path d="M621.322 611.996C620.868 610.16 620.983 607.363 621.275 605.33C621.644 602.788 622.111 600.457 622.53 598.071C623.407 593.085 624.264 588.03 625.127 583.002C625.422 581.265 624.741 579.655 624.45 581.335C623.407 587.352 622.371 593.396 621.342 599.469C620.926 601.954 620.327 604.765 620.327 607.942C620.327 610.23 620.706 612.688 621.308 612.306C621.317 612.295 621.325 612.275 621.331 612.247C621.337 612.22 621.342 612.186 621.344 612.15C621.347 612.113 621.347 612.075 621.345 612.038C621.342 612.001 621.338 611.967 621.332 611.939L621.322 611.996Z" fill="white"/>
<path d="M643.825 636.739C644.915 631.005 645.951 625.087 646.97 619.128C647.421 616.454 647.873 613.78 648.324 611.106C648.656 609.381 648.945 607.522 649.187 605.556C649.607 601.559 649.401 596.997 649.018 593.085C648.434 587.52 647.62 582.425 646.614 578.031C644.095 566.516 641.017 557.369 637.585 551.198C635.5 547.483 632.033 542.837 630.368 552.172C629.376 557.708 628.455 563.47 627.494 569.119L626.353 575.757C626.229 576.44 626.115 577.158 626.014 577.904C625.987 578.087 625.963 578.271 625.94 578.468C625.848 579.189 625.892 578.793 625.906 578.723C625.591 580.587 626.329 582.366 626.64 580.502C626.708 580.107 626.414 581.448 626.559 580.855L626.671 580.403C626.781 579.91 626.883 579.387 626.976 578.836C627.253 577.197 627.517 575.531 627.788 573.879C628.573 569.105 629.363 564.35 630.158 559.615C630.791 555.816 631.275 551.777 632.433 550.633C633.655 549.432 634.999 550.844 636.157 552.469C637.827 554.951 639.418 558.271 640.896 562.354C642.427 566.369 643.859 571.01 645.169 576.209C646.248 580.379 647.181 585.162 647.941 590.416C648.442 594.046 648.937 598.565 648.73 602.872C648.591 604.939 648.35 606.863 648.023 608.522C647.596 611.158 647.167 613.789 646.736 616.416C645.673 622.927 644.617 629.48 643.639 636.188C643.574 636.64 643.737 637.205 643.821 636.767L643.825 636.739Z" fill="white"/>
<path d="M615.773 808.357C615.844 805.83 615.306 803.358 614.873 801.819C614.371 800.01 613.798 798.577 613.18 797.582C612.564 796.585 611.913 796.022 611.254 795.915C610.665 795.802 609.683 795.704 609.297 797.85C609.124 798.796 609.324 799.926 609.534 800.279C609.795 800.731 610.167 800.18 610.441 800.025C610.711 799.893 610.982 799.846 611.254 799.884C611.833 799.965 612.404 800.442 612.946 801.296C613.471 802.109 613.965 803.237 614.412 804.643C614.832 805.957 615.221 807.891 615.729 808.555C615.737 808.561 615.745 808.56 615.752 808.553C615.76 808.545 615.767 808.531 615.773 808.511C615.779 808.491 615.784 808.465 615.788 808.436C615.791 808.407 615.793 808.376 615.794 808.343L615.773 808.357Z" fill="white"/>
<path d="M609.839 799.022C609.944 794.854 609.767 790.645 609.327 786.877C608.859 783.041 608.19 779.692 607.371 777.076C606.515 774.333 605.52 772.44 604.463 771.54C603.953 771.095 603.433 770.868 602.912 770.862C602.374 770.862 601.724 770.721 601.372 772.627C601.312 773.063 601.296 773.579 601.326 774.065C601.356 774.55 601.431 774.967 601.534 775.226C601.913 776.257 602.482 775.438 602.912 775.423C603.378 775.394 603.844 775.579 604.3 775.974C605.2 776.796 606.049 778.382 606.795 780.635C607.505 782.822 608.1 785.596 608.542 788.783C609.029 792 609.411 795.471 609.679 799.107C609.685 799.184 609.697 799.251 609.713 799.295C609.729 799.339 609.749 799.357 609.768 799.347C609.787 799.337 609.804 799.299 609.817 799.239C609.83 799.18 609.838 799.103 609.839 799.022Z" fill="white"/>
<path d="M601.358 775.084C601.385 774.736 601.409 774.369 601.429 773.983C601.456 773.46 601.477 773.46 601.507 772.938C601.552 772.052 601.564 771.141 601.541 770.24C601.5 768.222 601.375 766.248 601.172 764.408C600.939 762.362 600.609 760.535 600.201 759.037C599.794 757.539 599.318 756.402 598.802 755.694C598.472 755.256 598.132 754.977 597.786 754.861C597.379 754.712 596.969 754.953 596.588 755.567C596.493 755.693 596.412 755.954 596.359 756.305C596.306 756.656 596.284 757.074 596.297 757.485C596.311 757.897 596.358 758.276 596.432 758.555C596.505 758.834 596.6 758.996 596.7 759.013C597.004 759.013 597.302 759.168 597.607 759.225C598.074 759.233 598.536 759.656 598.961 760.467C599.172 760.891 599.371 761.402 599.557 761.993L599.632 762.247L599.764 762.699C599.845 763.01 599.926 763.334 600.004 763.673C600.143 764.262 600.267 764.905 600.376 765.594C600.6 766.995 600.78 768.509 600.911 770.099C601.068 771.668 601.163 773.333 601.192 775.028C601.193 775.108 601.2 775.185 601.213 775.245C601.226 775.304 601.244 775.343 601.263 775.353C601.282 775.363 601.302 775.344 601.318 775.3C601.334 775.256 601.346 775.19 601.351 775.113L601.358 775.084Z" fill="white"/>
<path d="M615.59 807.581C610.235 816.775 605.17 828.835 600.038 839.95C598.552 843.156 597.055 846.291 595.542 849.299C595.021 850.33 595.478 853.536 595.996 852.519C601.236 842.082 606.257 829.923 611.338 818.243C612.78 814.925 614.233 811.705 615.675 808.357C615.78 808.117 615.705 807.327 615.59 807.524V807.581Z" fill="white"/>
<path d="M595.156 851.629C595 852.106 594.813 852.375 594.62 852.4C594.426 852.426 594.236 852.206 594.073 851.771C593.528 850.443 593.656 847.082 593.765 844.935C593.941 841.39 594.178 837.874 594.36 834.357C594.763 826.547 595.095 818.667 595.403 810.787C595.982 796.099 596.459 781.341 596.896 766.568C596.986 763.461 597.074 760.359 597.16 757.262C597.228 754.748 596.283 754.762 596.219 757.262C595.952 767.147 595.644 776.878 595.319 786.651C594.746 803.725 594.164 820.884 593.233 837.69C592.969 842.45 592.363 848.565 593.152 852.985C593.67 855.88 595.352 857.052 595.342 851.954C595.341 851.866 595.334 851.781 595.322 851.709C595.31 851.637 595.293 851.58 595.274 851.546C595.254 851.512 595.233 851.502 595.212 851.517C595.191 851.531 595.172 851.571 595.156 851.629Z" fill="white"/>
<path d="M602.523 832.733C602.272 826.11 601.192 820.715 599.953 816.732C599.323 814.707 598.634 813.026 597.902 811.733C597.156 810.291 596.352 809.439 595.532 809.219C595.423 809.223 595.319 809.39 595.238 809.689C595.156 809.988 595.104 810.399 595.089 810.848C595.075 811.296 595.1 811.751 595.159 812.129C595.219 812.507 595.309 812.782 595.413 812.905C596.124 813.39 596.825 814.103 597.509 815.038C598.198 816.129 598.85 817.602 599.445 819.416C600.644 823.017 601.548 828.002 602.418 832.903C602.423 832.955 602.433 832.996 602.446 833.018C602.459 833.039 602.473 833.038 602.485 833.016C602.498 832.993 602.508 832.951 602.513 832.898C602.518 832.845 602.518 832.786 602.513 832.733H602.523Z" fill="white"/>
<path d="M609.757 796.071C611.711 786.947 613.346 776.596 615.052 766.667C616.684 757.177 618.317 747.682 619.951 738.182C623.167 719.455 626.383 700.729 629.545 681.861C630.468 676.381 631.39 670.897 632.311 665.408C633.296 659.547 634.4 653.785 635.25 647.557C635.568 645.226 634.772 642.402 634.329 644.591C633.357 649.393 632.548 654.844 631.688 659.999C630.828 665.153 630.019 669.983 629.183 674.983C627.585 684.558 625.973 694.105 624.399 703.751C621.298 722.76 618.198 741.774 615.1 760.792C613.234 772.232 611.206 783.487 609.642 795.689C609.602 795.986 609.7 796.339 609.757 796.071Z" fill="white"/>
<path d="M601.785 771.596C602.372 769.314 602.921 766.87 603.43 764.281C603.955 761.456 604.476 758.632 604.98 755.666C606.047 749.508 607.113 743.351 608.156 737.123C610.323 724.149 612.483 711.132 614.636 698.073C618.102 677.087 621.557 656.077 624.998 635.044C625.489 632.022 625.984 628.999 626.475 625.963C626.603 625.172 626.735 624.381 626.847 623.534C626.874 623.336 626.908 623.124 626.932 622.913C627.016 622.122 626.959 622.461 627.016 621.641C626.962 622.446 626.888 623.181 626.948 622.771C627.368 620.159 626.353 617.701 625.933 620.314C625.811 621.062 626.309 618.407 625.994 619.975L625.906 620.441C625.758 621.178 625.622 621.956 625.5 622.771C625.11 625.2 624.724 627.644 624.335 630.087L620.252 655.705C616.282 680.646 612.25 705.413 608.156 730.005C606.988 737.066 605.83 744.128 604.666 751.189C604.114 754.536 603.562 757.897 603.027 761.301C602.766 762.827 602.531 764.427 602.323 766.088C602.12 767.84 601.91 769.591 601.703 771.342C601.68 771.554 601.741 771.794 601.785 771.61V771.596Z" fill="white"/>
<path d="M635.96 644.69C637.257 636.414 640.023 620.37 640.023 620.37Z" fill="white"/>
<path d="M634.214 638.447C635.439 630.722 638.34 613.888 638.34 613.888Z" fill="white"/>
<path d="M632.457 631.584C633.672 623.774 636.333 608.027 636.333 608.027Z" fill="white"/>
<path d="M627.995 620.272C629.176 612.603 632.118 595.712 632.118 595.712Z" fill="white"/>
<path d="M625.601 618.351C625.601 618.351 628.986 598.466 630.341 589.244Z" fill="white"/>
<path d="M621.996 610.202C623.478 601.728 626.092 585.092 626.092 585.092Z" fill="white"/>
<path d="M607.872 803.132C606.748 805.957 603.42 815.842 602.299 818.667Z" fill="white"/>
<path d="M600.627 781.397L599.273 796.932Z" fill="white"/>
<path d="M617.676 697.664L625.483 652.669Z" fill="white"/>
<path d="M621.921 757.728L629.071 713.608Z" fill="white"/>
<path d="M600.637 746.839L605.962 713.834Z" fill="white"/>
<path d="M644.482 613.846L646.421 602.279Z" fill="white"/>
<path d="M646.74 594.427C646.532 590.827 646.036 587.629 645.335 585.36Z" fill="white"/>
<path d="M650.311 598.466C651.327 592.408 653.094 590.106 654.804 591.094C656.943 592.337 658.93 596.164 661.117 596.079C663.047 596.008 664.936 593.732 666.578 589.5C668.22 585.267 669.552 579.239 670.431 572.071C671.394 563.944 671.748 554.795 671.446 545.817C671.408 545.248 671.318 544.765 671.195 544.474C671.072 544.183 670.926 544.107 670.79 544.263C670.66 544.445 670.552 544.823 670.486 545.323C670.42 545.823 670.402 546.407 670.434 546.961C670.682 554.807 670.366 562.783 669.526 569.879C668.686 576.974 667.359 582.869 665.715 586.815C664.056 590.691 662.161 592.458 660.264 591.899C658.162 591.249 656.202 586.815 654.072 587.097C652.464 587.323 650.328 590.572 650.169 598.311C650.169 598.65 650.271 598.706 650.311 598.466Z" fill="white"/>
<path d="M670.895 545.181C670.662 545.746 670.446 546.424 670.251 547.201C669.997 548.074 669.729 548.876 669.449 549.602C668.921 550.942 668.359 552.031 667.773 552.85C666.609 554.502 665.358 554.756 664.161 553.584L664.276 557.2C665.699 553.598 666.832 548.314 667.533 542.018C667.888 538.887 668.132 535.557 668.257 532.132C668.319 530.497 668.35 528.844 668.349 527.189C668.349 525.48 668.349 523.291 667.939 522.387C667.869 522.226 667.788 522.162 667.709 522.202C667.629 522.243 667.555 522.386 667.496 522.613C667.188 523.715 667.262 525.438 667.265 526.963C667.271 528.516 667.25 530.068 667.204 531.609C667.107 534.534 666.911 537.387 666.622 540.083C666.027 545.718 665.044 550.49 663.799 553.796C663.721 553.999 663.658 554.292 663.619 554.639C663.58 554.986 663.565 555.373 663.577 555.753C663.588 556.134 663.626 556.493 663.685 556.786C663.744 557.08 663.823 557.297 663.91 557.412C665.289 558.737 666.731 558.289 668.047 556.126C668.68 555.1 669.268 553.645 669.788 551.819C670.224 550.28 670.867 547.963 670.986 545.492C670.99 545.442 670.991 545.387 670.987 545.335C670.984 545.284 670.976 545.238 670.966 545.206C670.956 545.173 670.944 545.154 670.931 545.152C670.918 545.15 670.905 545.165 670.895 545.195V545.181Z" fill="white"/>
<path d="M630.655 544.348C630.754 540.076 630.562 535.775 630.104 531.934C629.864 530.045 629.575 528.273 629.24 526.652C629.076 525.841 628.898 525.077 628.709 524.364C628.617 523.99 628.52 523.641 628.418 523.319C628.303 522.993 628.167 522.816 628.028 522.811C627.99 522.812 627.953 522.85 627.918 522.921C627.884 522.992 627.854 523.095 627.831 523.222C627.808 523.349 627.792 523.496 627.784 523.652C627.777 523.809 627.778 523.97 627.788 524.124C627.961 525.876 628.418 526.949 628.722 528.361C629.035 529.813 629.306 531.41 629.532 533.121C630.016 536.573 630.339 540.378 630.483 544.334C630.487 544.417 630.498 544.492 630.513 544.546C630.529 544.6 630.549 544.629 630.569 544.629C630.59 544.629 630.609 544.6 630.625 544.546C630.641 544.492 630.652 544.417 630.655 544.334V544.348Z" fill="white"/>
<path d="M649.323 577.904C651.134 573.78 652.342 565.49 652.935 557.44C653.568 548.955 653.545 539.854 652.871 531.426C652.852 531.155 652.817 530.908 652.769 530.711C652.721 530.513 652.662 530.371 652.596 530.298C652.531 530.226 652.463 530.225 652.397 530.297C652.332 530.368 652.272 530.509 652.224 530.706L650.802 536.242L651.479 537.414C651.662 530.352 651.946 523.291 652.021 516.145C652.031 514.267 651.293 513.772 651.219 515.707C650.934 522.853 650.856 530.225 650.687 537.428C650.653 538.925 651.137 539.518 651.364 538.6L652.772 532.951L652.122 532.231C652.771 540.015 652.818 548.453 652.254 556.352C651.689 564.501 650.562 570.983 649.184 577.127C649.168 577.208 649.159 577.309 649.159 577.414C649.158 577.519 649.166 577.621 649.182 577.704C649.197 577.788 649.219 577.847 649.243 577.873C649.267 577.899 649.293 577.89 649.316 577.847L649.323 577.904Z" fill="white"/>
<path d="M637.552 550.943C637.495 541.034 638.332 531.397 639.898 523.941L639.332 522.119C638.723 525.537 639.925 529.096 640.686 527.909C641.156 526.967 641.528 525.346 641.733 523.348C641.997 521.328 642.271 518.871 642.894 518.602C642.968 518.564 643.037 518.423 643.091 518.202C643.144 517.982 643.178 517.694 643.188 517.383C643.197 517.073 643.182 516.758 643.144 516.488C643.106 516.218 643.048 516.008 642.978 515.891C642.176 514.648 641.536 517.995 641.198 520.622C641.06 522.163 640.838 523.547 640.548 524.661C640.484 524.881 640.405 525.009 640.323 525.027C640.241 525.045 640.159 524.951 640.091 524.76C639.976 524.477 639.874 524.138 639.959 523.644C640.192 522.232 639.661 520.509 639.393 521.808C638.554 525.731 637.941 530.401 637.601 535.463C637.261 540.524 637.202 545.843 637.43 551.014C637.43 551.311 637.555 551.24 637.555 550.943H637.552Z" fill="white"/>
<path d="M658.006 580.319C659.045 582.13 660.205 582.338 661.278 580.907C662.35 579.476 663.265 576.499 663.86 572.509" fill="white"/>
<path d="M661.849 545.266C663.02 540.607 663.885 534.772 664.361 528.319Z" fill="white"/>
<path d="M674.808 542.54C675.481 540.064 676.267 538.179 677.118 536.998C677.97 535.816 678.87 535.362 679.764 535.663" fill="white"/>
<path d="M674.395 555.703C674.982 554.675 675.623 554.303 676.256 554.623C676.888 554.942 677.489 555.942 678.001 557.525" fill="white"/>
<path d="M646.953 564.106C647.783 560.559 648.386 556.199 648.706 551.426C649.026 546.653 649.053 541.621 648.784 536.792" fill="white"/>
<path d="M640.182 548.119C640.161 545.541 640.298 542.983 640.58 540.687C640.862 538.391 641.28 536.434 641.794 534.999" fill="white"/>
<path d="M644.194 530.974C644.573 528.78 645.055 526.927 645.61 525.527C646.165 524.127 646.781 523.208 647.423 522.825" fill="white"/>
<path d="M632.484 539.603C632.649 536.889 632.684 534.065 632.587 531.294C632.489 528.523 632.261 525.861 631.915 523.461" fill="white"/>
<path d="M679.747 564.826C680.223 566.202 680.58 568.184 680.763 570.475Z" fill="white"/>
<path d="M657.329 698.285C657.282 699.938 657.221 701.59 657.16 703.242C657.099 704.895 657.062 706.942 657.018 708.793C656.984 710.29 656.947 711.801 656.936 713.312C656.937 713.784 656.943 714.255 656.957 714.724C656.955 714.842 656.955 714.96 656.957 715.077C656.957 715.275 656.957 715.84 656.957 715.232C656.933 716.645 657.475 716.645 657.495 715.232C657.495 715.84 657.495 715.134 657.515 714.964C657.545 714.42 657.567 713.868 657.58 713.312C657.61 711.801 657.614 710.304 657.614 708.793C657.614 706.957 657.614 705.107 657.586 703.271C657.559 701.435 657.519 699.938 657.471 698.285C657.468 698.212 657.458 698.147 657.444 698.1C657.43 698.053 657.413 698.028 657.395 698.028C657.377 698.028 657.36 698.053 657.346 698.1C657.332 698.147 657.323 698.212 657.319 698.285H657.329Z" fill="white"/>
<path d="M657.234 715.021C656.683 715.19 656.127 715.247 655.576 715.416L654.716 715.713C654.569 715.739 654.424 715.8 654.279 715.896C654.147 716.054 654.022 716.302 653.91 716.631C653.873 716.722 653.844 716.857 653.825 717.017C653.807 717.177 653.8 717.356 653.805 717.533C653.81 717.71 653.828 717.876 653.856 718.011C653.883 718.147 653.92 718.246 653.961 718.297C654.084 718.435 654.212 718.496 654.34 718.481C654.485 718.419 654.629 718.3 654.77 718.128L655.64 717.337C656.182 716.842 656.72 716.249 657.255 715.586C657.326 715.487 657.316 714.992 657.234 715.021Z" fill="white"/>
<path d="M653.995 718.947C654.459 720.264 654.894 721.753 655.295 723.395C655.697 724.993 656.139 726.413 656.611 727.632C656.92 728.381 657.197 726.22 656.886 725.697C655.87 723.819 655.071 720.274 654.035 718.481C653.978 718.396 653.947 718.763 653.995 718.876V718.947Z" fill="white"/>
<path d="M656.662 726.728C656.662 728.946 656.635 731.149 656.618 733.352C656.618 735.188 656.618 737.038 656.618 738.874V741.388C656.58 742.236 656.6 743.112 656.676 743.916C656.701 744.085 656.736 744.225 656.778 744.322C656.82 744.418 656.867 744.469 656.914 744.469C656.962 744.469 657.009 744.418 657.051 744.322C657.093 744.225 657.128 744.085 657.153 743.916C657.229 743.112 657.245 742.229 657.197 741.388C657.197 740.554 657.17 739.707 657.157 738.874C657.123 737.038 657.096 735.188 657.045 733.352C656.984 731.149 656.92 728.946 656.852 726.728C656.848 726.645 656.837 726.57 656.821 726.516C656.806 726.462 656.786 726.433 656.766 726.433C656.745 726.433 656.725 726.462 656.71 726.516C656.694 726.57 656.683 726.645 656.679 726.728H656.662Z" fill="white"/>
<path d="M657.075 743.605C657.305 742.503 657.549 741.43 657.752 740.272L658.392 736.628C658.606 735.414 658.802 734.171 659.002 732.914L659.3 731.05C659.357 730.775 659.4 730.45 659.424 730.099C659.449 729.747 659.455 729.378 659.442 729.016C659.426 728.786 659.389 728.59 659.339 728.471C659.289 728.352 659.23 728.32 659.174 728.381C658.988 728.536 658.89 729.186 658.795 729.793L658.501 731.685C658.311 732.9 658.118 734.1 657.942 735.357L657.414 739.1C657.231 740.385 657.075 741.783 656.933 743.125C656.889 743.492 657.004 743.93 657.075 743.591V743.605Z" fill="white"/>
<path d="M659.228 729.525C659.465 730.358 659.689 731.233 659.933 732.024C660.201 732.836 660.479 733.59 660.765 734.284C661.307 735.696 661.859 737.109 662.411 738.521C662.641 739.1 663.061 740.314 663.308 739.34C663.555 738.365 663.206 737.066 663 736.515C662.455 735.103 661.869 733.945 661.307 732.759C660.969 732.067 660.63 731.346 660.291 730.697C659.96 730.138 659.621 729.667 659.276 729.285C659.232 729.285 659.195 729.482 659.228 729.595V729.525Z" fill="white"/>
<path d="M663.44 738.436C663.165 735.52 662.928 732.545 662.729 729.525C662.607 727.957 662.482 726.389 662.35 724.836C662.258 723.509 662.106 722.267 661.903 721.178C661.805 720.726 661.649 721.178 661.673 721.743C661.756 723.098 661.869 724.417 662.011 725.683C662.16 727.237 662.296 728.804 662.448 730.358C662.705 733.193 663.004 735.957 663.345 738.634C663.376 738.86 663.45 738.634 663.426 738.436H663.44Z" fill="white"/>
<path d="M657.366 698.384C657.752 701.096 658.152 703.765 658.551 706.448C658.754 707.86 658.958 709.16 659.157 710.53C659.252 711.179 659.344 711.843 659.445 712.479C659.526 713.134 659.642 713.704 659.784 714.145C659.807 714.202 659.834 714.232 659.862 714.232C659.889 714.232 659.916 714.202 659.94 714.144C659.963 714.087 659.983 714.005 659.997 713.906C660.01 713.807 660.017 713.694 660.017 713.58C659.983 712.238 659.679 710.939 659.492 709.866C659.259 708.538 659.025 707.197 658.788 705.869C658.338 703.327 657.888 700.771 657.434 698.186C657.431 698.165 657.427 698.147 657.422 698.132C657.417 698.117 657.412 698.106 657.406 698.101C657.4 698.095 657.394 698.094 657.388 698.097C657.382 698.101 657.377 698.11 657.372 698.123C657.366 698.136 657.362 698.153 657.358 698.173C657.355 698.193 657.352 698.216 657.351 698.24C657.349 698.265 657.349 698.29 657.35 698.314C657.351 698.339 657.353 698.363 657.356 698.384H657.366Z" fill="white"/>
<path d="M659.872 713.75C660.508 713.326 661.155 713.354 661.791 713.001C662.103 712.818 662.411 712.648 662.719 712.351C663.027 712.055 663.501 711.843 663.65 710.558C663.673 710.396 663.689 710.215 663.695 710.028C663.701 709.84 663.699 709.649 663.687 709.466C663.675 709.282 663.655 709.111 663.627 708.961C663.599 708.812 663.564 708.687 663.525 708.595C663.186 707.931 662.847 708.793 662.509 709.16C662.17 709.527 661.889 709.922 661.578 710.304C660.973 711.078 660.391 712.13 659.841 713.439C659.797 713.538 659.841 713.778 659.872 713.75Z" fill="white"/>
<path d="M663.541 711.264C663.203 712.789 662.864 714.305 662.526 715.812C662.34 716.631 662.157 717.478 661.977 718.325C661.769 719.063 661.602 719.984 661.49 721.023C661.472 721.304 661.475 721.601 661.498 721.876C661.52 722.151 661.562 722.393 661.617 722.57C661.672 722.748 661.739 722.854 661.808 722.875C661.878 722.896 661.947 722.832 662.008 722.689C662.213 721.937 662.376 721.001 662.482 719.949C662.621 718.961 662.756 717.972 662.885 716.97C663.125 715.134 663.372 713.312 663.616 711.49C663.623 711.451 663.626 711.401 663.625 711.352C663.623 711.303 663.617 711.259 663.607 711.229C663.598 711.199 663.586 711.186 663.574 711.192C663.563 711.199 663.552 711.225 663.545 711.264H663.541Z" fill="white"/>
<path d="M660.048 699.952C660.247 698.864 660.457 697.805 660.637 696.661C660.725 696.11 660.813 695.574 660.894 695.009C660.982 694.272 661.027 693.459 661.026 692.636C661.026 692.443 661.012 692.254 660.986 692.093C660.96 691.932 660.923 691.807 660.881 691.732C660.837 691.665 660.79 691.649 660.745 691.687C660.699 691.724 660.657 691.813 660.623 691.944C660.561 692.155 660.502 692.381 660.447 692.622C660.366 692.991 660.302 693.423 660.261 693.893C660.2 694.486 660.153 695.108 660.098 695.715C659.99 696.972 659.916 698.285 659.828 699.57C659.787 700.149 659.97 700.375 660.048 699.952Z" fill="white"/>
<path d="M655.87 690.32C655.806 688.795 655.741 687.27 655.674 685.744C655.643 684.996 655.613 684.247 655.579 683.499C655.562 683.113 655.539 682.731 655.511 682.355C655.459 681.88 655.388 681.445 655.301 681.07C655.258 680.888 655.202 680.767 655.142 680.721C655.081 680.676 655.019 680.709 654.963 680.816C654.907 680.91 654.86 681.07 654.826 681.276C654.793 681.482 654.774 681.724 654.773 681.974C654.76 682.446 654.767 682.923 654.794 683.386C654.83 683.824 654.876 684.249 654.929 684.657C655.007 685.335 655.091 685.984 655.173 686.648L655.664 690.701C655.725 691.196 655.884 690.829 655.863 690.348L655.87 690.32Z" fill="white"/>
<path d="M653.27 704.612C653.159 704.263 653.053 703.891 652.952 703.497C652.828 703.109 652.698 702.76 652.563 702.451L652.197 701.548L652.092 701.322C652.02 701.187 651.944 701.106 651.865 701.082C651.775 701.064 651.684 701.112 651.598 701.223C651.557 701.273 651.52 701.36 651.489 701.478C651.458 701.595 651.433 701.741 651.417 701.904C651.401 702.067 651.394 702.242 651.397 702.418C651.399 702.593 651.411 702.764 651.432 702.918C651.468 703.245 651.519 703.542 651.581 703.793C651.623 703.954 651.67 704.096 651.72 704.217C651.778 704.329 651.838 704.424 651.899 704.499C652.031 704.697 652.166 704.852 652.302 705.022C652.448 705.238 652.599 705.399 652.752 705.502C652.888 705.552 653.022 705.637 653.155 705.756C653.189 705.782 653.224 705.758 653.255 705.689C653.285 705.62 653.309 705.51 653.322 705.377C653.336 705.243 653.338 705.095 653.328 704.956C653.319 704.817 653.298 704.696 653.27 704.612Z" fill="white"/>
<path d="M653.954 731.233C653.561 731.544 653.165 731.798 652.779 732.194L652.207 732.759C652.109 732.858 652.011 732.942 651.913 733.055C651.789 733.221 651.679 733.524 651.594 733.931C651.559 734.085 651.534 734.275 651.522 734.481C651.509 734.687 651.509 734.904 651.523 735.109C651.536 735.315 651.562 735.503 651.597 735.655C651.633 735.807 651.677 735.919 651.726 735.979C651.851 736.113 651.981 736.113 652.105 735.979C652.2 735.837 652.295 735.64 652.39 735.484L652.952 734.496C653.331 733.832 653.697 733.084 654.062 732.335C654.218 732.024 654.103 731.121 653.954 731.233Z" fill="white"/>
<path d="M660.495 747.009L660.43 749.085C660.413 749.734 660.413 750.384 660.407 751.019C660.4 751.655 660.386 752.319 660.407 752.968C660.41 753.461 660.44 753.943 660.495 754.381C660.529 754.621 660.579 754.816 660.639 754.943C660.699 755.07 660.766 755.125 660.833 755.101C660.899 755.052 660.961 754.927 661.011 754.74C661.062 754.553 661.098 754.311 661.117 754.042C661.139 753.575 661.139 753.096 661.117 752.629C661.087 752.008 661.046 751.387 661.013 750.765C660.979 750.144 660.945 749.508 660.897 748.901L660.738 746.952C660.73 746.848 660.712 746.759 660.69 746.702C660.667 746.644 660.64 746.621 660.614 746.636C660.588 746.65 660.564 746.703 660.546 746.784C660.527 746.864 660.517 746.969 660.515 747.079L660.495 747.009Z" fill="white"/>
<path d="M665.298 728.903C665.401 729.472 665.514 730.006 665.637 730.499L665.837 731.149C665.878 731.313 665.925 731.451 665.976 731.558L666.074 731.714L666.206 731.911C666.281 731.995 666.361 731.962 666.43 731.819C666.5 731.676 666.555 731.433 666.585 731.135C666.612 730.834 666.614 730.503 666.59 730.197C666.566 729.892 666.517 729.63 666.453 729.454L666.334 729.129C666.276 728.977 666.212 728.862 666.145 728.79L665.894 728.522C665.714 728.369 665.53 728.293 665.346 728.296C665.268 728.296 665.241 728.691 665.285 728.903H665.298Z" fill="white"/>
<path d="M665.359 704.019C665.41 704.019 665.458 703.936 665.493 703.787C665.529 703.639 665.549 703.438 665.549 703.228C665.549 703.018 665.529 702.817 665.493 702.669C665.458 702.521 665.41 702.437 665.359 702.437C665.309 702.437 665.261 702.521 665.225 702.669C665.19 702.817 665.17 703.018 665.17 703.228C665.17 703.438 665.19 703.639 665.225 703.787C665.261 703.936 665.309 704.019 665.359 704.019Z" fill="white"/>
<path d="M659.817 677.991L659.773 678.16C659.754 678.222 659.738 678.299 659.726 678.386L659.709 678.499L659.652 678.923V679.064C659.646 679.143 659.646 679.226 659.652 679.304C659.648 679.35 659.648 679.4 659.652 679.446C659.655 679.522 659.665 679.592 659.679 679.643L659.709 679.742H659.743C659.762 679.763 659.782 679.763 659.801 679.742C659.818 679.756 659.837 679.756 659.855 679.742L659.956 679.488H659.98L660.017 679.361L660.058 679.163C660.074 679.095 660.087 679.013 660.095 678.923C660.104 678.834 660.109 678.738 660.109 678.641C660.109 678.544 660.104 678.448 660.095 678.358C660.087 678.268 660.074 678.187 660.058 678.118L660.021 678.005C659.993 677.932 659.962 677.892 659.929 677.892H659.885C659.855 677.93 659.827 677.997 659.804 678.09L659.817 677.991Z" fill="white"/>
<path d="M654.357 755.284H654.526C654.557 755.281 654.587 755.231 654.611 755.143C654.63 755.05 654.641 754.929 654.641 754.804C654.642 754.679 654.631 754.557 654.611 754.465C654.588 754.376 654.558 754.325 654.526 754.324H654.357C654.325 754.336 654.296 754.391 654.272 754.479C654.261 754.522 654.253 754.575 654.248 754.635C654.245 754.7 654.245 754.767 654.248 754.833C654.248 754.898 654.251 754.963 654.256 755.024C654.262 755.085 654.271 755.14 654.282 755.186C654.305 755.282 654.335 755.338 654.367 755.341L654.357 755.284Z" fill="white"/>
<path d="M663.751 748.534L663.646 748.322L663.724 748.661L663.748 748.887V748.76C663.741 748.674 663.73 748.596 663.714 748.534C663.704 748.456 663.689 748.393 663.67 748.35C663.656 748.284 663.637 748.239 663.616 748.223C663.598 748.17 663.577 748.145 663.555 748.153C663.534 748.124 663.512 748.124 663.491 748.153C663.468 748.147 663.445 748.172 663.426 748.223C663.406 748.246 663.387 748.29 663.372 748.35C663.355 748.4 663.34 748.462 663.328 748.534C663.315 748.601 663.304 748.677 663.298 748.76C663.283 748.882 663.276 749.018 663.277 749.155V749.424L663.304 749.678L663.342 749.875L663.392 750.045L663.45 750.144H663.582L663.64 750.045L663.69 749.875L663.728 749.678C663.742 749.604 663.751 749.517 663.755 749.424L663.731 749.65L663.653 749.988L663.758 749.791C663.783 749.728 663.804 749.641 663.819 749.537C663.835 749.43 663.843 749.308 663.843 749.183C663.843 749.059 663.835 748.937 663.819 748.83C663.805 748.727 663.784 748.643 663.758 748.59L663.751 748.534Z" fill="white"/>
<path d="M649.448 719.639C649.549 719.639 649.645 719.472 649.716 719.175C649.787 718.879 649.827 718.477 649.827 718.057C649.827 717.638 649.787 717.235 649.716 716.939C649.645 716.642 649.549 716.475 649.448 716.475C649.347 716.475 649.251 716.642 649.18 716.939C649.109 717.235 649.069 717.638 649.069 718.057C649.069 718.477 649.109 718.879 649.18 719.175C649.251 719.472 649.347 719.639 649.448 719.639Z" fill="white"/>
<path d="M637.701 800.548C633.777 813.42 631.175 832.044 630.425 852.632C629.748 871.316 630.71 890.481 632.853 907.019C634.97 923.55 638.232 937.039 642.213 945.729C646.174 954.028 650.676 956.697 655.034 953.327C659.358 950.052 663.368 941.682 666.588 929.205C669.791 916.86 671.943 900.5 672.719 882.6C673.445 864.663 672.917 846.233 671.199 829.513C669.532 812.701 666.654 798.464 662.963 788.769C659.155 779.344 654.742 775.053 650.328 776.483C645.938 777.611 641.73 784.208 638.249 795.421C637.427 798.338 636.662 801.521 635.96 804.94C635.744 805.914 636.092 807.369 636.299 806.352C637.053 803.184 637.873 800.306 638.75 797.751C639.581 795.155 640.458 792.827 641.374 790.789C643.235 786.66 645.227 783.654 647.291 781.863C651.448 778.132 655.776 779.605 659.733 786.1C663.603 792.778 666.85 804.506 668.989 819.529C671.151 834.485 672.252 851.693 672.164 869.156C672.09 886.596 670.651 903.457 668.068 917.173C665.431 930.831 661.904 941.018 657.911 946.506C653.936 952.223 649.632 952.608 645.602 947.607C641.475 942.255 637.873 930.844 635.297 916.467C632.679 902.103 631.172 884.752 630.977 866.727C630.85 846.671 632.396 827.052 635.351 811.224C636.065 807.428 636.866 803.928 637.741 800.774C637.775 800.646 637.741 800.449 637.69 800.576L637.701 800.548Z" fill="white"/>
<path d="M633.029 828.609C631.966 838.495 633.746 848.183 635.239 855.287C636.059 859.185 636.932 863.238 637.392 868.125C637.934 873.887 637.538 879.296 637.315 885.072C637.139 889.648 637.149 894.831 637.853 898.686C638.557 902.542 639.684 903.389 640.785 902.923C641.8 902.499 643.022 900.776 643.994 902.711C644.884 904.476 645.125 908.869 645.145 912.597C645.199 922.2 643.567 934.84 645.721 942.368C645.961 943.201 646.398 942.099 646.191 940.857C645.568 937.156 645.561 932.143 645.7 927.821C645.846 923.26 646.184 918.867 646.222 914.249C646.255 910.238 646.11 905.776 645.545 902.485C645.231 900.765 644.818 899.402 644.345 898.523C643.871 897.644 643.353 897.278 642.836 897.457C641.821 897.613 640.727 899.293 639.698 898.474C638.601 897.599 638.215 893.009 638.205 888.829C638.188 883.179 638.699 877.728 638.496 872.051C638.277 867.345 637.766 862.962 637.013 859.34C635.385 850.754 632.274 841.221 633.127 828.652C633.127 828.468 633.073 828.341 633.052 828.525L633.029 828.609Z" fill="white"/>
<path d="M655.078 950.432C655.921 938.186 655.68 925.084 654.401 913.515C653.73 907.658 652.826 902.319 651.726 897.726C650.511 892.599 649.126 888.108 648.04 882.473C647.058 877.361 646.259 870.709 646.476 863.987C646.665 858.14 647.583 853.268 648.53 849.13C649.546 844.61 650.714 840.656 651.615 835.614C652.515 830.572 653.243 824.486 653.155 818.159C653.105 814.633 652.796 811.256 652.271 808.485C651.736 805.916 651.147 803.552 650.511 801.423C649.949 799.569 649.527 797.078 649.296 794.249C649.109 791.58 649.12 788.911 649.668 787.046C650.051 785.733 649.556 783.191 649.143 784.222C647.972 787.145 647.982 793.458 648.49 798.133C649.099 803.782 650.501 806.606 651.388 811.408C652.332 816.478 652.082 822.876 651.405 828.2C650.663 834.004 649.522 838.326 648.409 842.873C647.376 847.11 646.344 851.672 645.765 857.307C645.46 860.355 645.311 863.633 645.326 866.935C645.341 870.236 645.521 873.488 645.853 876.485C647.237 889.817 650.592 896.54 652.529 908.078C654.582 920.32 655.424 935.396 654.878 950.163C654.874 950.279 654.88 950.397 654.896 950.494C654.911 950.592 654.934 950.663 654.961 950.694C654.988 950.725 655.017 950.715 655.042 950.664C655.067 950.613 655.087 950.525 655.098 950.418L655.078 950.432Z" fill="white"/>
<path d="M662.096 803.415C660.315 806.14 660.065 815.263 660.23 822.127C660.359 827.155 660.671 832.281 660.515 837.365C660.359 842.45 659.608 845.557 658.903 849.271C658.199 852.985 657.732 857.052 657.786 861.84C657.805 864.109 657.935 866.338 658.168 868.39C658.401 870.442 658.732 872.274 659.14 873.774C660.833 879.762 663.088 878.674 664.747 873.152C665.645 869.923 666.427 866.17 667.069 862.01C667.509 859.397 667.942 856.756 668.383 854.129C668.854 851.526 669.293 848.825 669.7 846.037C669.92 844.413 669.378 842.492 669.06 843.975C668.281 847.774 667.621 852.138 666.927 856.247C666.351 859.74 665.73 863.101 665.068 866.317C663.839 871.966 662.065 876.471 660.264 872.206C659.844 871.203 659.487 869.793 659.224 868.095C658.961 866.397 658.8 864.46 658.754 862.447C658.653 858.083 659.093 854.525 659.743 851.22C660.393 847.915 661.006 844.935 661.263 840.84C661.52 836.744 661.398 832.126 661.229 827.847C660.921 820.206 660.373 809.586 662.181 804.22C662.265 803.965 662.218 803.302 662.106 803.471L662.096 803.415Z" fill="white"/>
<path d="M670.614 885.905C668.132 880.75 665.045 878.406 662.715 886.131C661.755 889.197 661.121 893.708 660.948 898.7C660.779 904.519 661.426 909.871 662.12 914.715C662.552 917.423 662.916 920.31 663.206 923.33C663.473 926.325 663.485 929.61 663.24 932.637C663.206 933.222 663.222 933.839 663.287 934.376C663.352 934.914 663.461 935.338 663.594 935.571C663.727 935.805 663.876 935.832 664.013 935.649C664.15 935.466 664.268 935.084 664.344 934.572C665.021 929.813 664.642 923.768 664.137 919.037C663.633 914.306 662.783 910.055 662.343 905.055C661.507 895.17 663.494 887.162 665.695 885.284C667.296 883.871 668.965 885.142 670.536 886.611C670.641 886.71 670.715 886.089 670.614 885.877V885.905Z" fill="white"/>
<path d="M636.306 822.071C635.466 822.777 635.212 827.635 635.581 830.855C635.95 834.075 636.702 836.179 637.311 838.679C637.921 841.179 638.439 844.808 638.158 848.183" fill="white"/>
<path d="M646.276 834.315C646.684 833.49 647.03 832.216 647.277 830.63C647.523 829.045 647.662 827.208 647.677 825.319C647.692 823.429 647.583 821.558 647.362 819.908C647.14 818.258 646.815 816.891 646.421 815.955" fill="white"/>
<path d="M632.666 872.715C632.936 882.108 633.762 891.073 635.07 898.799Z" fill="white"/>
<path d="M637.26 912.95C637.963 917.092 638.891 920.48 639.969 922.836Z" fill="white"/>
<path d="M663.203 809.643C662.417 817.979 662.282 827.137 662.817 835.812Z" fill="white"/>
<path d="M661.795 856.247C661.475 856.579 661.194 857.369 661 858.478C660.805 859.586 660.711 860.945 660.732 862.315C660.753 863.685 660.889 864.981 661.116 865.976C661.343 866.97 661.647 867.601 661.974 867.757" fill="white"/>
<path d="M664.537 897.443C664.276 900.763 664.213 904.298 664.353 907.743C664.492 911.187 664.831 914.438 665.339 917.215" fill="white"/>
<path d="M666.036 894.576C666.882 892.863 667.856 892.619 668.745 893.899Z" fill="white"/>
<path d="M650.474 910.097C651.436 914.568 652.158 919.843 652.593 925.571C653.028 931.299 653.166 937.347 652.996 943.314" fill="white"/>
<path d="M640.69 881.668C640.532 882.982 640.471 884.459 640.513 885.916C640.555 887.374 640.699 888.748 640.926 889.868C641.154 890.989 641.455 891.806 641.793 892.219C642.13 892.631 642.49 892.621 642.826 892.19" fill="white"/>
<path d="M653.169 789.871C654.211 789.437 655.264 789.923 656.258 791.298C657.253 792.672 658.167 794.905 658.941 797.85" fill="white"/>
<path d="M609.646 863.309C608.546 867.397 607.787 872.839 607.479 878.846C607.17 884.854 607.328 891.115 607.929 896.723C608.548 902.265 609.558 906.884 610.825 909.957C612.092 913.03 613.554 914.409 615.015 913.91C616.489 913.34 617.886 910.893 619.016 906.901C620.145 902.908 620.954 897.563 621.331 891.591C621.708 885.618 621.636 879.305 621.125 873.509C620.613 867.712 619.687 862.712 618.471 859.185C615.861 851.361 611.602 851.869 609.446 862.532C609.25 863.521 609.514 865.357 609.784 864.453C610.809 861.12 612.005 858.828 613.278 857.759C614.566 856.808 615.893 857.564 617.073 859.919C618.247 862.241 619.223 866.003 619.87 870.701C620.517 875.4 620.804 880.811 620.694 886.21C620.583 891.609 620.08 896.739 619.252 900.912C618.423 905.085 617.309 908.103 616.058 909.561C614.777 911.017 613.42 910.762 612.176 908.832C610.932 906.901 609.865 903.393 609.124 898.799C608.313 893.538 607.951 887.289 608.098 881.063C608.244 874.837 608.889 868.999 609.93 864.495C609.968 864.338 609.989 864.124 609.989 863.902C609.989 863.68 609.968 863.466 609.93 863.309C609.892 863.152 609.841 863.063 609.788 863.063C609.734 863.063 609.683 863.152 609.646 863.309Z" fill="white"/>
<path d="M611.717 873.096C611.331 874.198 611.021 875.705 610.817 877.464C610.614 879.224 610.525 881.175 610.56 883.123C610.575 885.151 610.731 887.117 611.007 888.787C611.283 890.457 611.668 891.761 612.117 892.543C612.559 893.266 613.036 893.53 613.508 893.314C613.98 893.097 614.432 892.406 614.825 891.3C615.22 890.169 615.531 888.597 615.723 886.764C615.914 884.932 615.979 882.912 615.909 880.934C615.766 876.627 615.028 871.994 613.945 871.203C613.678 871.02 613.447 872.616 613.742 873.209C614.096 873.785 614.413 874.698 614.667 875.875C614.922 877.051 615.107 878.46 615.208 879.988C615.313 881.45 615.317 883.008 615.218 884.478C615.119 885.949 614.922 887.271 614.649 888.292C614.37 889.248 614.041 889.925 613.689 890.27C613.337 890.616 612.971 890.62 612.618 890.283C612.263 889.914 611.941 889.133 611.689 888.031C611.437 886.928 611.265 885.55 611.193 884.055C611.091 882.306 611.105 880.474 611.235 878.756C611.364 877.039 611.604 875.502 611.927 874.31C612.09 873.76 611.88 872.616 611.704 873.096H611.717Z" fill="white"/>
<path d="M612.317 878.152C612.151 878.44 612.007 878.907 611.898 879.504C611.79 880.101 611.721 880.807 611.699 881.551C611.678 882.294 611.704 883.048 611.775 883.736C611.846 884.424 611.959 885.022 612.103 885.467C612.127 885.526 612.153 885.564 612.181 885.58C612.208 885.597 612.236 885.59 612.263 885.561C612.289 885.532 612.315 885.482 612.337 885.412C612.359 885.343 612.377 885.256 612.391 885.157C612.419 884.953 612.426 884.713 612.413 884.487C612.399 884.26 612.364 884.065 612.317 883.942L612.29 883.871L612.249 883.73L612.219 883.589L612.168 883.278C612.161 883.21 612.153 883.144 612.144 883.081L612.114 882.685C612.114 882.685 612.114 882.558 612.114 882.502C612.114 882.346 612.114 882.445 612.114 882.502C612.11 882.224 612.11 881.946 612.114 881.668V881.485C612.114 881.344 612.114 881.216 612.137 881.075C612.139 881.005 612.139 880.934 612.137 880.863C612.137 880.75 612.164 880.637 612.181 880.539L612.205 880.383C612.185 880.482 612.225 880.242 612.205 880.383L612.273 880.087L612.31 879.988L612.351 879.889C612.351 879.889 612.418 879.762 612.374 879.889C612.422 879.827 612.462 879.691 612.486 879.51C612.511 879.329 612.518 879.116 612.506 878.914C612.493 878.712 612.461 878.539 612.417 878.433C612.373 878.328 612.322 878.298 612.273 878.35L612.317 878.152Z" fill="white"/>
<path d="M616.345 891.554C616.233 892.605 616.203 893.776 616.258 894.902C616.313 896.029 616.452 897.056 616.653 897.839C616.866 898.611 617.135 899.059 617.417 899.11C617.698 899.162 617.976 898.813 618.204 898.121C618.337 897.759 618.452 897.289 618.541 896.738C618.63 896.188 618.692 895.568 618.722 894.915C618.734 894.704 618.726 894.482 618.7 894.294C618.675 894.105 618.633 893.964 618.583 893.899C618.532 893.842 618.478 893.871 618.433 893.98C618.387 894.088 618.354 894.267 618.339 894.478C618.312 894.981 618.26 895.454 618.186 895.868C618.112 896.281 618.018 896.626 617.91 896.878C617.802 897.13 617.683 897.286 617.56 897.334C617.436 897.381 617.312 897.321 617.195 897.156C617.078 896.991 616.97 896.725 616.879 896.376C616.788 896.027 616.716 895.602 616.667 895.128C616.618 894.655 616.593 894.144 616.594 893.628C616.595 893.112 616.622 892.603 616.674 892.133C616.752 891.357 616.433 890.792 616.335 891.554H616.345Z" fill="white"/>
<path d="M617.188 889.944C617.259 889.65 617.348 889.439 617.445 889.334C617.542 889.229 617.644 889.234 617.74 889.347C617.837 889.461 617.924 889.679 617.994 889.98C618.063 890.281 618.113 890.654 618.136 891.06" fill="white"/>
<path d="M617.293 893.814L617.632 894.153Z" fill="white"/>
<path d="M617.327 872.164C617.256 872.445 617.2 872.788 617.163 873.168C617.126 873.549 617.11 873.958 617.115 874.368C617.121 874.777 617.147 875.177 617.193 875.539C617.239 875.902 617.303 876.218 617.381 876.467C617.46 876.715 617.55 876.889 617.646 876.978C617.742 877.066 617.841 877.066 617.937 876.977C618.033 876.889 618.123 876.715 618.202 876.466C618.28 876.218 618.344 875.902 618.39 875.539" fill="white"/>
<path d="M612.797 901.256C613.058 900.896 613.341 900.955 613.591 901.419C613.842 901.884 614.042 902.723 614.152 903.77" fill="white"/>
<path d="M674.845 839.512C678.393 863.04 678.877 896.907 676.602 922.836Z" fill="white"/>
<path d="M678.234 869.791C678.202 869.325 678.144 868.898 678.064 868.548C677.983 868.199 677.883 867.936 677.773 867.784C677.663 867.632 677.545 867.595 677.431 867.676C677.316 867.758 677.208 867.955 677.116 868.251C677.024 868.546 676.951 868.931 676.903 869.373C676.855 869.814 676.833 870.297 676.841 870.781C676.848 871.264 676.883 871.733 676.944 872.147C677.004 872.56 677.088 872.906 677.188 873.152C677.296 873.436 677.421 873.586 677.549 873.586C677.676 873.586 677.801 873.436 677.909 873.152C678.043 872.812 678.147 872.302 678.205 871.696C678.264 871.091 678.274 870.423 678.234 869.791Z" fill="white"/>
<path d="M677.547 898.912C676.87 898.912 676.87 904.392 677.547 904.392C678.563 904.392 678.563 898.912 677.547 898.912Z" fill="white"/>
<path d="M575.253 673.006C575.54 673.888 575.859 674.57 576.198 675.025C576.578 675.33 576.969 675.33 577.349 675.025C578.162 674.395 578.945 673.232 579.671 671.579C581.411 667.992 583.121 664.108 584.841 660.281L595.22 637.685L599.625 628.067C600.114 627.152 600.577 626.015 601.006 624.678C601.273 623.732 600.986 621.966 600.667 622.305C600.266 622.901 599.882 623.682 599.523 624.636L598.169 627.573L595.708 632.968L590.721 643.871C587.39 651.186 584.048 658.417 580.727 665.803C579.867 667.885 578.97 669.703 578.046 671.24C577.63 671.914 577.198 672.388 576.756 672.653C576.275 673.009 575.781 672.961 575.304 672.511C575.229 672.413 575.189 672.864 575.253 673.034V673.006Z" fill="white"/>
<path d="M599.523 626.754C600.537 625.719 601.499 623.94 602.364 621.5C602.794 620.257 603.332 618.803 603.572 616.783C603.718 615.177 603.766 613.444 603.711 611.741C603.669 609.277 603.563 606.838 603.396 604.468C602.724 595.052 601.808 585.969 600.664 577.381C600.092 572.932 599.483 568.554 598.863 564.219C598.419 560.79 597.922 557.487 597.373 554.333C596.145 547.921 594.103 544.927 592.326 549.588C592.222 549.893 592.149 550.351 592.122 550.87C592.095 551.389 592.116 551.931 592.18 552.39C592.244 552.848 592.347 553.189 592.469 553.345C592.591 553.5 592.722 553.46 592.837 553.231C593.595 551.819 594.367 550.957 595.17 552.37C595.731 553.45 596.221 555.089 596.595 557.143C597.075 559.905 597.51 562.797 597.898 565.8C598.443 569.585 598.982 573.398 599.496 577.282C600.573 585.161 601.468 593.451 602.167 602.039C602.543 606.016 602.741 610.248 602.75 614.524C602.75 615.272 602.716 615.272 602.563 615.936C602.381 616.705 602.184 617.409 601.974 618.04C601.111 620.724 600.282 623.393 599.462 626.344C599.454 626.387 599.448 626.439 599.447 626.494C599.446 626.55 599.449 626.605 599.456 626.653C599.462 626.701 599.472 626.74 599.484 626.763C599.497 626.786 599.51 626.793 599.523 626.782V626.754Z" fill="white"/>
<path d="M576.841 673.712C575.717 672.963 575.114 669.475 574.62 665.521C574.007 660.648 573.5 655.494 572.927 650.536C572.162 643.998 571.387 637.473 570.615 630.934C570.243 627.771 569.867 624.621 569.495 621.458C569.121 618.732 568.854 615.777 568.702 612.702C568.65 611.59 568.663 610.443 568.74 609.357C568.816 608.27 568.955 607.277 569.142 606.46C569.593 604.525 570.442 603.451 570.72 601.008C570.744 600.848 570.758 600.667 570.762 600.48C570.766 600.293 570.759 600.104 570.742 599.929C570.726 599.755 570.699 599.599 570.665 599.475C570.631 599.351 570.591 599.262 570.547 599.215C569.891 598.664 569.126 600.895 568.645 602.604C568.214 604.052 567.902 606.028 567.754 608.253C567.355 614.99 568.432 621.853 569.136 627.601L571.739 649.35C572.166 652.909 572.609 656.412 573.029 660.013C573.307 662.371 573.55 664.815 573.852 667.074C574.136 669.429 574.551 671.463 575.064 673.006C575.325 673.698 575.619 674.149 575.925 674.329C576.232 674.51 576.544 674.415 576.841 674.051C576.888 674.051 576.895 673.669 576.841 673.641V673.712Z" fill="white"/>
<path d="M569.566 602.915C570.392 601.753 571.191 600.278 571.952 598.509C572.721 596.941 573.489 595.373 574.248 593.707L578.696 583.906C581.614 577.452 584.543 570.969 587.478 564.558C589.252 560.688 591.021 556.837 592.786 553.005C593.277 551.932 592.84 548.768 592.35 549.898C586.414 563.211 580.471 576.515 574.522 589.809C573.679 591.687 572.829 593.594 572.01 595.585C571.191 597.576 570.209 599.469 569.461 602.152C569.373 602.449 569.461 603.014 569.566 602.915Z" fill="white"/>
<path d="M590.755 643.574C590.613 640.524 590.132 637.558 589.794 634.832L588.778 626.697C588.077 621.048 587.366 615.399 586.659 609.821C585.951 604.242 585.244 598.523 584.526 592.972C584.187 590.289 583.822 587.62 583.47 584.951C583.12 582.017 582.723 579.186 582.281 576.477C582.048 575.178 581.452 575.856 581.604 577.678C581.885 580.658 582.212 583.56 582.583 586.363C582.921 589.103 583.236 591.843 583.571 594.568C584.282 600.316 585.013 606.008 585.734 611.741C586.455 617.475 587.153 623.04 587.871 628.562L588.947 637.035C589.286 639.747 589.624 642.995 590.132 645.212C590.192 645.473 590.272 645.64 590.358 645.684C590.444 645.728 590.531 645.647 590.604 645.454C590.677 645.261 590.732 644.969 590.76 644.626C590.787 644.284 590.786 643.912 590.755 643.574Z" fill="white"/>
<path d="M595.427 549.432C595.335 548.641 595.122 548.387 594.943 548.02C594.763 547.653 594.604 547.314 594.418 547.017C594.056 546.41 593.687 545.845 593.321 545.266C592.955 544.687 592.59 544.094 592.224 543.543C592.05 543.228 591.871 542.955 591.689 542.724C591.57 542.625 591.446 542.654 591.33 542.809C591.274 542.88 591.221 543.006 591.178 543.176C591.11 543.543 591.104 543.571 591.158 543.275C591.136 543.301 591.116 543.348 591.098 543.411C591.081 543.475 591.068 543.554 591.059 543.642C591.05 543.73 591.046 543.825 591.048 543.921C591.049 544.016 591.055 544.109 591.066 544.193C591.093 544.521 591.124 544.842 591.161 545.153C591.235 545.613 591.341 545.965 591.466 546.156C591.639 546.438 591.821 546.664 591.997 546.932C592.366 547.469 592.739 547.963 593.108 548.486C593.477 549.009 593.846 549.559 594.222 550.025C594.401 550.251 594.587 550.407 594.767 550.604C594.951 550.916 595.157 550.941 595.346 550.675C595.396 550.551 595.432 550.35 595.448 550.116C595.463 549.881 595.455 549.63 595.427 549.418V549.432Z" fill="white"/>
<path d="M591.869 543.317C590.921 541.326 589.807 542.286 588.849 543.783C587.839 545.52 586.856 547.525 585.907 549.785C583.822 554.342 581.738 558.923 579.658 563.527C578.611 565.829 577.592 568.357 576.543 570.588L573.54 577.183C571.458 581.773 569.369 586.194 567.274 590.614C566.241 592.789 565.026 594.653 564.166 597.958C563.391 600.924 562.981 606.177 563.726 609.821C564.017 611.233 564.684 609.722 564.504 607.928C564.125 604.129 564.647 601.22 565.408 599.186C566.289 596.856 567.25 594.95 568.167 592.888C570.084 588.566 572 584.216 573.923 579.98C577.721 571.661 581.54 563.583 585.338 555.335C586.388 553.062 587.427 550.633 588.504 548.599C589.566 546.799 590.68 545.583 591.818 544.984C591.859 544.933 591.895 544.834 591.923 544.698C591.951 544.562 591.968 544.396 591.974 544.219C591.979 544.043 591.972 543.863 591.953 543.703C591.935 543.543 591.905 543.409 591.869 543.317Z" fill="white"/>
<path d="M563.875 608.649C564.271 614.919 564.985 620.921 565.625 626.81C566.031 630.553 566.444 634.267 566.874 637.967C567.416 642.642 567.975 647.288 568.533 651.921C569.21 657.471 569.84 664.631 571.106 668.275C571.849 670.286 572.644 671.944 573.476 673.218C574.312 674.785 575.214 675.653 576.13 675.774C576.241 675.76 576.347 675.583 576.429 675.273C576.511 674.963 576.565 674.542 576.579 674.083C576.594 673.625 576.569 673.16 576.509 672.771C576.449 672.382 576.358 672.095 576.252 671.961C575.521 671 574.739 670.76 574.004 669.729C573.285 668.682 572.588 667.398 571.919 665.888C571.298 664.305 570.794 662.037 570.463 659.335C570.053 656.51 569.704 653.545 569.342 650.621C568.36 642.628 567.382 634.634 566.471 626.5C565.777 620.3 565.151 613.789 564.237 608.041C564.211 607.899 564.175 607.797 564.134 607.752C564.093 607.706 564.05 607.719 564.01 607.789C563.971 607.86 563.939 607.982 563.919 608.138C563.898 608.294 563.891 608.474 563.898 608.649H563.875Z" fill="white"/>
<path d="M581.953 575.489C581.638 574.457 581.273 573.725 580.883 573.342C580.487 572.805 580.091 572.325 579.685 571.93C578.882 571.054 578.08 570.037 577.267 569.317C577.149 569.222 577.026 569.317 576.923 569.584C576.82 569.851 576.746 570.269 576.714 570.755C576.681 571.242 576.695 571.761 576.75 572.209C576.806 572.657 576.9 573.001 577.014 573.172C577.809 574.161 578.632 574.867 579.438 575.715C579.84 576.124 580.247 576.505 580.656 576.83C581.046 577.278 581.455 577.37 581.855 577.099C581.894 577.056 581.93 576.971 581.959 576.85C581.988 576.73 582.008 576.58 582.018 576.415C582.028 576.25 582.028 576.077 582.016 575.914C582.005 575.751 581.983 575.604 581.953 575.489Z" fill="white"/>
<path d="M571.12 608.394C570.917 608.931 570.743 609.641 570.611 610.478C570.479 611.315 570.391 612.261 570.353 613.25C570.315 614.24 570.329 615.253 570.392 616.22C570.455 617.187 570.567 618.087 570.72 618.859" fill="white"/>
<path d="M571.404 624.523L573.435 641.823Z" fill="white"/>
<path d="M598.728 619.904C599.4 618.891 600.024 617.395 600.573 615.484C600.847 614.517 601.057 613.273 601.182 611.871C601.308 610.469 601.345 608.956 601.29 607.476" fill="white"/>
<path d="M600.867 602.957L600.19 598.367Z" fill="white"/>
<path d="M583.28 557.214L585.866 560.857Z" fill="white"/>
<path d="M587.745 553.259L590.281 556.847Z" fill="white"/>
<path d="M565.909 597.04L568.448 599.864Z" fill="white"/>
<path d="M569.562 595.416L571.404 598.028Z" fill="white"/>
<path d="M570.155 589.442L571.925 592.012Z" fill="white"/>
<path d="M602.959 564.459C604.005 565.25 605.153 561.973 605.908 559.346C606.797 555.974 607.561 552.071 608.176 547.766C608.789 543.422 609.467 539.248 610.208 535.267C610.982 531.522 611.942 528.521 613.021 526.469C613.309 525.89 613.18 523.644 612.852 523.87C610.482 525.056 608.985 535.324 607.875 543.133C607.301 547.506 606.621 551.619 605.844 555.406C605.459 557.263 605.019 558.906 604.534 560.293C604.022 561.705 603.447 562.312 602.922 563.498C602.9 563.55 602.883 563.627 602.872 563.72C602.861 563.813 602.857 563.918 602.86 564.021C602.863 564.125 602.874 564.221 602.89 564.299C602.907 564.377 602.928 564.433 602.953 564.459H602.959Z" fill="white"/>
<path d="M602.942 578.398C605.871 575.573 607.99 565.942 610.329 558.767C611.644 554.715 613.021 551.03 614.453 547.737C615.942 544.32 617.5 541.382 618.949 537.739C619.216 537.075 619.044 535.112 618.732 535.578C615.607 540.254 612.671 546.878 610.021 555.223C607.652 562.708 605.556 571.958 602.875 577.649C602.773 577.861 602.844 578.497 602.949 578.398H602.942Z" fill="white"/>
<path d="M605.702 581.731C607.076 578.815 608.61 577.456 610.15 577.791C611.667 578.232 613.139 580.121 614.453 583.313C614.697 583.863 615.001 582.423 614.761 581.646C612.168 573.257 608.268 573.737 605.546 580.686C605.517 580.774 605.496 580.904 605.489 581.052C605.481 581.199 605.487 581.353 605.505 581.483C605.523 581.614 605.552 581.711 605.587 581.757C605.621 581.803 605.659 581.793 605.691 581.731H605.702Z" fill="white"/>
<path d="M606.768 590.473C607.672 591.366 608.495 593.327 609.138 596.122C609.753 598.945 610.168 602.426 610.336 606.177C610.407 607.688 610.979 607.335 610.973 605.824C610.966 603.576 610.83 601.368 610.577 599.384C610.326 597.43 609.999 595.664 609.608 594.159C608.852 591.118 607.839 589.447 606.788 589.512C606.656 589.512 606.619 590.374 606.758 590.501L606.768 590.473Z" fill="white"/>
<path d="M599.818 551.946C600.436 549.518 600.924 546.573 601.25 543.303C601.411 541.695 601.525 540.012 601.588 538.289C601.626 537.355 601.65 536.412 601.659 535.465C601.653 534.494 601.629 533.526 601.588 532.57C601.561 532.19 601.502 531.863 601.422 531.648C601.342 531.433 601.247 531.344 601.153 531.396C601.058 531.449 600.972 531.64 600.908 531.936C600.845 532.231 600.809 532.611 600.806 533.008C600.739 539.363 600.468 545.718 599.618 551.198C599.53 551.762 599.723 552.356 599.835 551.904L599.818 551.946Z" fill="white"/>
<path d="M618.133 569.712C618.222 569.741 618.311 569.662 618.39 569.486C618.472 569.377 618.546 569.177 618.603 568.907C618.668 568.667 618.716 568.36 618.742 568.018C618.783 567.686 618.803 567.317 618.8 566.944L618.776 566.21C618.746 565.744 618.686 565.32 618.603 564.981L618.471 564.543C618.368 564.299 618.251 564.173 618.133 564.176C618.044 564.154 617.956 564.238 617.879 564.416C617.796 564.514 617.722 564.711 617.666 564.981C617.601 565.221 617.553 565.528 617.527 565.871C617.486 566.202 617.466 566.572 617.469 566.944L617.493 567.679C617.523 568.146 617.582 568.571 617.666 568.907L617.798 569.345C617.901 569.589 618.018 569.716 618.136 569.712H618.133Z" fill="white"/>
<path d="M615.262 597.478L615.198 597.308L615.377 598.283C615.372 598.094 615.356 597.914 615.33 597.76C615.32 597.685 615.308 597.618 615.292 597.562C615.26 597.359 615.216 597.193 615.164 597.082C615.113 596.945 615.055 596.867 614.995 596.856C614.936 596.793 614.874 596.793 614.815 596.856C614.739 596.947 614.669 597.117 614.612 597.35L614.541 597.732C614.501 598.024 614.48 598.355 614.48 598.692C614.476 598.946 614.489 599.2 614.517 599.427C614.536 599.66 614.568 599.869 614.612 600.034C614.668 600.272 614.738 600.443 614.815 600.528H614.934C615.015 600.533 615.095 600.44 615.164 600.26L615.259 599.963C615.319 599.719 615.36 599.404 615.377 599.059L615.198 600.034L615.262 599.878C615.315 599.753 615.36 599.571 615.39 599.349C615.42 599.128 615.436 598.877 615.435 598.622C615.435 598.369 615.419 598.12 615.389 597.902C615.359 597.683 615.315 597.503 615.262 597.379V597.478Z" fill="white"/>
<path d="M594.773 529.915C594.888 529.915 594.999 529.724 595.08 529.385C595.161 529.046 595.207 528.586 595.207 528.107C595.207 527.628 595.161 527.168 595.08 526.829C594.999 526.49 594.888 526.299 594.773 526.299C594.659 526.299 594.548 526.49 594.467 526.829C594.386 527.168 594.34 527.628 594.34 528.107C594.34 528.586 594.386 529.046 594.467 529.385C594.548 529.724 594.659 529.915 594.773 529.915Z" fill="white"/>
</g>
<g opacity="0.2">
<path d="M650.151 0.412354H487.405C487.19 29.3493 489.46 57.6543 493.806 80.2251C498.675 104.917 505.687 120.568 513.313 123.759C519.811 126.301 526.309 119.593 532.835 118.933C539.36 118.273 546.61 125.963 550.124 148.905C554.728 178.957 550.895 219.58 553.336 253.783C556.066 291.992 566.591 313.888 576.09 309.914C585.588 305.94 593.976 281.39 600.494 252.222C607.011 223.055 612.102 188.9 618.188 158.14C621.921 139.284 627.293 120.091 632.947 126.543C638.346 132.688 640.768 159.201 640.937 182.465C641.107 205.728 639.85 229.554 641.323 252.013C642.573 271.013 645.932 287.101 650.128 296.062L650.151 0.412354Z" fill="#6DCEAE"/>
</g>
<g opacity="0.2">
<path d="M473.467 105.55L473.517 104.762L473.575 103.813C473.575 103.587 473.575 103.491 473.614 103.137L473.664 102.14C473.702 101.448 473.745 100.627 473.795 99.8711C473.845 99.115 473.903 98.3428 473.965 97.4901C474.096 95.8009 474.258 93.9347 474.454 91.9719C474.668 89.879 474.908 87.8331 475.172 85.8424C475.465 83.6844 475.788 81.6001 476.14 79.6002C476.877 75.3307 477.741 71.4706 478.712 68.1133C478.77 67.8398 478.712 68.0329 478.747 67.9686H478.766L478.808 67.8398L478.889 67.5985L479.055 67.0837L479.441 65.9254C479.711 65.0727 479.965 64.4453 480.212 63.7535C480.709 62.4882 481.224 61.3544 481.755 60.3589C482.666 58.6505 483.621 57.3768 484.601 56.5621C485.025 56.2243 485.407 55.983 485.758 55.8382C486.109 55.6934 486.402 55.4681 486.649 55.4681C486.896 55.4681 487.081 55.4681 487.208 55.4681H487.405L487.223 55.806C487.108 56.0473 486.938 56.3369 486.73 56.8195C486.521 57.3022 486.271 57.8492 485.993 58.541C485.715 59.2327 485.415 60.1498 485.098 61.0507C484.402 63.2328 483.765 65.7311 483.201 68.4995C482.895 70.0282 482.614 71.6406 482.36 73.3259C482.234 74.1258 482.118 74.9528 482.013 75.8034L481.847 77.1066L481.751 77.8627L481.701 78.2327L481.678 78.4258V78.5223L481.701 78.4097C481.331 81.7663 481.071 85.3164 480.929 88.9634C480.812 91.9669 480.778 95.0173 480.829 98.0532C480.852 99.3563 480.891 100.499 480.929 101.512L480.995 102.896C480.995 103.298 481.045 103.555 481.064 103.845L481.091 104.231C481.091 104.231 481.091 104.617 481.118 104.778C481.145 104.939 481.153 105.47 481.165 105.743C481.192 106.258 481.203 106.548 481.203 106.548C481.408 110.84 481.195 115.296 480.612 118.934C480.029 122.573 479.124 125.096 478.095 125.95C477.066 126.803 475.998 125.916 475.126 123.485C474.253 121.053 473.649 117.275 473.444 112.983C473.318 110.529 473.326 107.989 473.467 105.55V105.55Z" fill="#6DCEAE"/>
<path d="M463.44 10.9204L464.211 11.4192L465.191 12.0788L465.831 12.5292L466.494 13.1567C466.953 13.5589 467.443 14.122 467.952 14.7655C468.461 15.409 468.997 16.1491 469.541 16.9213C470.085 17.6935 470.632 18.6427 471.176 19.7045C471.72 20.7663 472.26 21.8603 472.792 22.9221C473.324 23.9839 473.841 25.3514 474.335 26.7189C474.828 28.0864 475.291 29.4217 475.735 30.757C476.178 32.0923 476.587 33.5081 476.957 34.9238C477.327 36.3395 477.671 37.6105 477.968 38.9136L478.4 40.7316L478.762 42.4691C478.993 43.5309 479.186 44.4801 479.333 45.3006L479.807 47.8264L479.132 46.3141C478.882 45.7244 478.624 45.1875 478.361 44.7053L477.879 43.7722L477.324 42.9196C476.938 42.2599 476.552 41.6808 476.097 41.1016C475.642 40.5224 475.191 40.0237 474.717 39.4928C474.242 38.9619 473.741 38.5919 473.228 38.3023C472.715 38.0127 472.206 37.7714 471.685 37.5462C471.165 37.3209 470.667 37.2887 470.166 37.3209C469.664 37.3531 469.179 37.4335 468.716 37.514C468.253 37.5944 467.802 37.8196 467.381 38.1092C466.961 38.3988 466.568 38.5919 466.224 38.9136L465.715 39.3802L465.299 39.8467L464.558 40.6672L463.818 41.4716C462.857 42.5341 461.834 41.9606 460.975 39.8772C460.115 37.7939 459.489 34.3715 459.234 30.3628C458.98 26.3542 459.117 22.0876 459.617 18.5018C460.116 14.916 460.936 12.3046 461.897 11.2422C462.401 10.6949 462.926 10.5854 463.44 10.9204V10.9204Z" fill="#6DCEAE"/>
<path d="M456.194 88.5935L456.757 86.0355C456.988 84.9737 457.304 83.4936 457.648 82.094C457.991 80.6943 458.365 79.3268 458.805 77.9272C459.021 77.2032 459.248 76.4953 459.495 75.8035C459.742 75.1117 459.985 74.3878 460.266 73.7282C460.805 72.3289 461.364 71.0664 461.94 69.9475C462.237 69.3522 462.538 68.7891 462.846 68.3387C463.155 67.8882 463.467 67.3251 463.78 66.8747C464.408 65.9577 465.056 65.2659 465.708 64.5419C466.36 63.8179 466.992 63.3836 467.636 62.9331C468.28 62.4826 468.886 62.2574 469.479 62.0483C470.549 61.686 471.623 61.5678 472.696 61.6943C473.729 61.8107 474.76 62.203 475.781 62.8687C474.783 63.6281 473.797 64.6545 472.831 65.9416C471.857 67.2058 470.9 68.6935 469.965 70.398C469.46 71.3471 468.947 72.3446 468.442 73.4869C467.937 74.6291 467.443 75.8196 466.965 77.0745C466.487 78.3294 466.012 79.7129 465.588 81.2091C465.376 81.917 465.172 82.6088 464.979 83.3488C464.786 84.0889 464.593 84.7967 464.42 85.5368C464.085 86.8986 463.772 88.3496 463.483 89.8806C463.345 90.5548 463.217 91.2583 463.097 91.9881C462.98 92.628 462.873 93.2999 462.777 93.9991C462.576 95.2701 462.43 96.5088 462.295 97.5707C462.16 98.6325 462.133 99.2921 462.052 100.032L461.728 103.25C461.541 105.11 461.258 106.777 460.901 108.134C460.543 109.492 460.119 110.508 459.657 111.112C459.196 111.715 458.708 111.891 458.229 111.628C457.749 111.364 457.29 110.668 456.881 109.586C456.473 108.505 456.126 107.065 455.865 105.368C455.604 103.67 455.435 101.755 455.369 99.7558C455.304 97.757 455.344 95.7228 455.486 93.7949C455.628 91.867 455.87 90.092 456.194 88.5935V88.5935Z" fill="#6DCEAE"/>
</g>
<path d="M431.133 30.7761L408.958 132.459L410.99 138.108L427.578 62.5522L431.133 30.7761Z" fill="url(#paint1_linear_2255_6026)"/>
<path opacity="0.2" d="M215.903 989C216.089 979.006 215.97 968.953 215.55 959.083C213.344 907.297 203.151 857.765 190.531 858.147C183.288 858.348 176.611 874.343 170.701 891.886C164.792 909.43 159.114 929.348 152.263 939.467C145.411 949.587 136.924 947.515 132.008 925.284C128.146 907.861 126.437 879.01 120.904 873.619C113.975 866.859 108.766 903.998 101.683 906.855C96.6567 908.867 92.1182 892.43 89.9697 873.377C87.8212 854.325 87.4397 832.818 86.4789 812.156C85.5181 791.494 83.7414 769.906 79.7195 757.292C73.805 738.662 65.3751 745.502 58.4756 756.567C51.5762 767.633 44.3871 782.44 37.0917 776.928C26.7884 769.162 20.676 724.8 17.2963 683.516C12.8964 630.299 10.5751 574.483 10.421 518.2C10.3341 482.771 11.0824 446.456 8.56213 412.636C6.86262 389.741 3.13529 367.993 -1.69287 356.304V989H215.903Z" fill="#FFC634"/>
</g>
<defs>
<linearGradient id="paint0_linear_2255_6026" x1="0" y1="0.412354" x2="716.164" y2="64.6586" gradientUnits="userSpaceOnUse">
<stop stop-color="#FFF5BE"/>
<stop offset="1" stop-color="#D0F7EA"/>
</linearGradient>
<linearGradient id="paint1_linear_2255_6026" x1="430.117" y1="35.7191" x2="385.312" y2="47.8343" gradientUnits="userSpaceOnUse">
<stop stop-color="#FBDBC4"/>
<stop offset="0.115268" stop-color="#F9D8BE"/>
<stop offset="0.21875" stop-color="#EAC3A5"/>
<stop offset="0.489416" stop-color="#F2CAB0"/>
<stop offset="0.711474" stop-color="#F6D2BA"/>
<stop offset="1" stop-color="#F9D9C2"/>
</linearGradient>
</defs>
</svg>
