<svg width="1920" height="624" viewBox="0 0 1920 624" fill="none" xmlns="http://www.w3.org/2000/svg">
<mask id="mask0_2259_6010" style="mask-type:alpha" maskUnits="userSpaceOnUse" x="0" y="0" width="1920" height="624">
<rect width="1920" height="623.857" fill="#F0F0F0"/>
</mask>
<g mask="url(#mask0_2259_6010)">
<rect width="1920" height="623.857" fill="url(#paint0_linear_2259_6010)"/>
<g opacity="0.2">
<path d="M1920.44 0H1439.72C1439.08 18.2609 1445.79 36.1231 1458.63 50.3666C1473.01 65.9486 1493.72 75.8254 1516.25 77.8393C1535.44 79.4434 1554.64 75.2098 1573.91 74.7935C1593.19 74.3773 1614.6 79.2302 1624.98 93.7076C1638.58 112.673 1627.26 138.308 1634.47 159.892C1642.53 184.004 1673.62 197.822 1701.68 195.314C1729.74 192.806 1754.51 177.314 1773.77 158.907C1793.02 140.501 1808.06 118.947 1826.03 99.5352C1837.06 87.6364 1852.93 75.5245 1869.63 79.5957C1885.58 83.4739 1892.73 100.205 1893.23 114.886C1893.73 129.566 1890.02 144.602 1894.37 158.775C1898.06 170.765 1907.98 180.918 1920.38 186.573L1920.44 0Z" fill="#6DCEAE"/>
</g>
<g opacity="0.2">
<path d="M1398.55 66.3483L1398.7 65.8509L1398.87 65.2519C1398.87 65.1097 1398.87 65.0488 1398.98 64.8255L1399.13 64.196C1399.24 63.7594 1399.37 63.2417 1399.52 62.7645C1399.67 62.2873 1399.84 61.8 1400.02 61.2619C1400.41 60.1959 1400.88 59.0182 1401.47 57.7796C1402.1 56.4589 1402.8 55.1678 1403.58 53.9115C1404.45 52.5497 1405.4 51.2344 1406.44 49.9723C1408.62 47.278 1411.17 44.8421 1414.04 42.7234C1414.21 42.5509 1414.04 42.6727 1414.14 42.6321H1414.2L1414.33 42.5509L1414.57 42.3986L1415.06 42.0737L1416.19 41.3427C1416.99 40.8046 1417.74 40.4087 1418.47 39.9721C1419.94 39.1737 1421.46 38.4582 1423.03 37.8299C1425.72 36.7518 1428.54 35.9481 1431.44 35.4339C1432.69 35.2207 1433.82 35.0685 1434.85 34.9771C1435.89 34.8857 1436.76 34.7436 1437.49 34.7436C1438.21 34.7436 1438.76 34.7436 1439.14 34.7436H1439.72L1439.18 34.9568C1438.84 35.1091 1438.34 35.2918 1437.72 35.5964C1437.11 35.901 1436.37 36.2461 1435.55 36.6827C1434.73 37.1193 1433.84 37.698 1432.91 38.2665C1430.85 39.6436 1428.97 41.2201 1427.3 42.9671C1426.4 43.9319 1425.57 44.9494 1424.82 46.0129C1424.45 46.5177 1424.1 47.0396 1423.79 47.5763L1423.3 48.3987L1423.02 48.8759L1422.87 49.1094L1422.8 49.2312V49.2921L1422.87 49.2211C1421.78 51.3392 1421.01 53.5796 1420.59 55.8811C1420.24 57.7765 1420.14 59.7014 1420.3 61.6173C1420.36 62.4396 1420.48 63.1604 1420.59 63.8001L1420.79 64.6732C1420.79 64.927 1420.93 65.0894 1420.99 65.2722L1421.07 65.5158C1421.07 65.5158 1421.07 65.7595 1421.15 65.861C1421.23 65.9625 1421.25 66.2976 1421.29 66.4702C1421.37 66.795 1421.4 66.9778 1421.4 66.9778C1422 69.6866 1421.38 72.4983 1419.66 74.7945C1417.93 77.0907 1415.26 78.6832 1412.22 79.2217C1409.18 79.7602 1406.02 79.2007 1403.45 77.6661C1400.87 76.1315 1399.08 73.7476 1398.48 71.0388C1398.11 69.4905 1398.13 67.8875 1398.55 66.3483V66.3483Z" fill="#6DCEAE"/>
<path d="M1368.93 6.63127L1371.21 6.946L1374.1 7.36225L1375.99 7.64652L1377.95 8.04247C1379.31 8.29628 1380.76 8.65162 1382.26 9.05772C1383.76 9.46382 1385.35 9.93083 1386.95 10.4182C1388.56 10.9055 1390.18 11.5045 1391.78 12.1745C1393.39 12.8446 1394.98 13.535 1396.56 14.205C1398.13 14.8751 1399.65 15.7381 1401.11 16.601C1402.57 17.464 1403.94 18.3066 1405.25 19.1493C1406.56 19.992 1407.76 20.8854 1408.86 21.7788C1409.95 22.6722 1410.97 23.4743 1411.84 24.2966L1413.12 25.4439L1414.19 26.5403C1414.87 27.2104 1415.44 27.8094 1415.88 28.3272L1417.28 29.9211L1415.28 28.9668C1414.54 28.5946 1413.78 28.2558 1413.01 27.9515L1411.58 27.3627L1409.94 26.8246C1408.8 26.4083 1407.66 26.0429 1406.32 25.6774C1404.97 25.3119 1403.64 24.9972 1402.24 24.6621C1400.84 24.3271 1399.36 24.0936 1397.84 23.9108C1396.33 23.7281 1394.82 23.5758 1393.29 23.4337C1391.75 23.2915 1390.28 23.2712 1388.8 23.2915C1387.32 23.3118 1385.88 23.3626 1384.51 23.4134C1383.15 23.4641 1381.81 23.6063 1380.57 23.789C1379.33 23.9717 1378.17 24.0936 1377.16 24.2966L1375.65 24.5911L1374.42 24.8855L1372.23 25.4033L1370.05 25.9109C1367.21 26.5813 1364.19 26.2194 1361.65 24.9047C1359.11 23.59 1357.26 21.4303 1356.51 18.9006C1355.76 16.3709 1356.16 13.6784 1357.64 11.4156C1359.11 9.1527 1361.54 7.50478 1364.37 6.83432C1365.86 6.48896 1367.41 6.41984 1368.93 6.63127V6.63127Z" fill="#6DCEAE"/>
<path d="M1347.53 55.6476L1349.19 54.0333C1349.87 53.3633 1350.81 52.4292 1351.82 51.546C1352.83 50.6627 1353.94 49.7997 1355.24 48.9165C1355.88 48.4596 1356.55 48.0129 1357.28 47.5763C1358.01 47.1398 1358.72 46.6829 1359.56 46.2667C1361.15 45.3836 1362.8 44.5869 1364.5 43.8808C1365.38 43.5052 1366.26 43.1498 1367.18 42.8656C1368.09 42.5813 1369.01 42.226 1369.93 41.9417C1371.79 41.363 1373.7 40.9264 1375.63 40.4696C1377.55 40.0127 1379.42 39.7386 1381.32 39.4543C1383.23 39.17 1385.02 39.0279 1386.77 38.8959C1389.93 38.6673 1393.1 38.5928 1396.27 38.6726C1399.32 38.746 1402.37 38.9936 1405.38 39.4137C1402.44 39.8929 1399.52 40.5406 1396.67 41.3528C1393.79 42.1506 1390.97 43.0895 1388.21 44.1651C1386.71 44.7641 1385.2 45.3935 1383.71 46.1144C1382.21 46.8352 1380.76 47.5865 1379.34 48.3784C1377.93 49.1703 1376.53 50.0434 1375.28 50.9876C1374.65 51.4343 1374.05 51.8708 1373.48 52.3379C1372.91 52.8049 1372.34 53.2516 1371.82 53.7186C1370.84 54.578 1369.91 55.4936 1369.06 56.4598C1368.65 56.8853 1368.27 57.3292 1367.92 57.7897C1367.57 58.1936 1367.25 58.6175 1366.97 59.0588C1366.38 59.8609 1365.95 60.6426 1365.55 61.3127C1365.15 61.9827 1365.07 62.399 1364.83 62.866L1363.87 64.8965C1363.32 66.0702 1362.49 67.1222 1361.43 67.979C1360.37 68.8359 1359.12 69.4771 1357.76 69.8578C1356.39 70.2386 1354.95 70.3497 1353.54 70.1834C1352.12 70.0172 1350.76 69.5776 1349.56 68.8953C1348.35 68.213 1347.33 67.3044 1346.55 66.2329C1345.78 65.1615 1345.28 63.9529 1345.09 62.6916C1344.9 61.4303 1345.01 60.1465 1345.44 58.9299C1345.86 57.7133 1346.57 56.5932 1347.53 55.6476V55.6476Z" fill="#6DCEAE"/>
</g>
<path opacity="0.2" d="M637.743 623.857C638.293 617.55 637.943 611.207 636.702 604.978C630.185 572.298 600.078 541.04 562.798 541.282C541.406 541.409 521.682 551.502 504.226 562.573C486.77 573.644 469.998 586.213 449.761 592.599C429.523 598.986 404.452 597.678 389.933 583.649C378.524 572.654 373.475 554.448 357.131 551.045C336.666 546.779 321.278 570.216 300.356 572.019C285.509 573.289 272.104 562.916 265.757 550.893C259.411 538.869 258.284 525.297 255.446 512.258C252.608 499.219 247.36 485.596 235.48 477.636C218.009 465.879 193.108 470.196 172.728 477.179C152.349 484.162 131.113 493.506 109.564 490.027C79.1294 485.127 61.0741 457.131 51.091 431.079C38.0943 397.496 31.2376 362.273 30.7824 326.755C30.5257 304.397 32.7363 281.48 25.2917 260.138C20.2716 245.69 9.26163 231.965 -5 224.589V623.857H637.743Z" fill="#FFC634"/>
</g>
<defs>
<linearGradient id="paint0_linear_2259_6010" x1="0" y1="0" x2="1812.82" y2="761.216" gradientUnits="userSpaceOnUse">
<stop stop-color="#FFF5BE"/>
<stop offset="1" stop-color="#D0F7EA"/>
</linearGradient>
</defs>
</svg>
